<svg width="26" height="26" fill="none" xmlns="http://www.w3.org/2000/svg"><path d="M25.519 12.832c0 6.863-5.62 12.433-12.56 12.433S.4 19.695.4 12.832C.4 5.97 6.02.4 12.96.4s12.559 5.57 12.559 12.432Z" stroke="#F8F8F8" stroke-opacity=".3" stroke-width=".8"/><path fill-rule="evenodd" clip-rule="evenodd" d="M15.004 10.08a5.068 5.068 0 0 0-.848-.091c-.609 0-.648.262-.648.681v.747h1.522l-.132 1.548h-1.39v4.706H11.6v-4.706h-.98v-1.548h.98v-.957c0-1.31.622-2.045 2.185-2.045.542 0 .94.079 1.456.184l-.238 1.481Z" fill="#F8F8F8" fill-opacity=".7"/></svg>